M48
;Layer_Color=9474304
;FILE_FORMAT=2:5
INCH,LZ
;TYPE=PLATED
T1F00S00C0.01181
T2F00S00C0.03150
T3F00S00C0.03937
T4F00S00C0.05906
T5F00S00C0.06693
T6F00S00C0.09843
%
T01
X0102362Y0100394
X0098819Y0117717
X0106693
X0127559Y011811
X0127953Y0111811
X0135827Y011811
X013189Y0122441
X0133465Y0138189
X0138189Y0143307
X0122441Y0155905
X0089764Y0151181
X0102362Y0135039
X0164961Y0138189
X0160236Y0143307
X0165945Y0111774
X0179134Y0104724
X0183071Y011811
X0188189Y0116142
Y0128347
X0209055Y0111811
X0214173Y0116535
X0261811Y0104724
Y0101181
Y0097638
X0301693Y0095079
X0307087Y0091732
X0307087Y0098425
X031063Y0101969
X030748Y0131496
X0290551Y0144882
X028189Y0140157
Y0149606
X0296417Y0154646
X0303543Y0068504
X0310236Y0068543
X0317323Y0068543
X032441Y0068543
X0329449Y0073583
X0328268Y0107874
X0328346Y0116535
X0322835Y0112205
Y0120866
X0319882Y0131102
X0323622Y0142126
X0314961Y0141732
X0322756Y0103543
X0147638Y0169685
X013815Y0176969
X0133819Y0181299
X0114173Y0178779
X0110236Y018311
X0105905Y0178779
X0081496Y0173583
X0085433Y0169252
X0077165
X0059842Y0162992
X0122441Y0163386
T02
X0052027Y0170866
X0059902
X0067776
T03
X0052756Y0084646
Y0094488
Y0102362
Y0112205
T04
X015315Y0015748
X016815
X024685
X026185
T05
X0102362Y003937
X0122047
X019685Y0039371
X0216535
X0291339
X0311024
T06
X0042087Y0072559
Y0124291
M30
