G04*
G04 #@! TF.GenerationSoftware,Altium Limited,Altium Designer,23.4.1 (23)*
G04*
G04 Layer_Physical_Order=2*
G04 Layer_Color=16711680*
%FSLAX44Y44*%
%MOMM*%
G71*
G04*
G04 #@! TF.SameCoordinates,1CC85F37-83BB-4277-A685-93E53EEA7533*
G04*
G04*
G04 #@! TF.FilePolarity,Positive*
G04*
G01*
G75*
%ADD46C,0.5000*%
%ADD47C,1.0000*%
%ADD49C,1.5240*%
%ADD50C,3.5000*%
G04:AMPARAMS|DCode=51|XSize=1.5mm|YSize=1.5mm|CornerRadius=0.375mm|HoleSize=0mm|Usage=FLASHONLY|Rotation=180.000|XOffset=0mm|YOffset=0mm|HoleType=Round|Shape=RoundedRectangle|*
%AMROUNDEDRECTD51*
21,1,1.5000,0.7500,0,0,180.0*
21,1,0.7500,1.5000,0,0,180.0*
1,1,0.7500,-0.3750,0.3750*
1,1,0.7500,0.3750,0.3750*
1,1,0.7500,0.3750,-0.3750*
1,1,0.7500,-0.3750,-0.3750*
%
%ADD51ROUNDEDRECTD51*%
%ADD52C,1.5000*%
G04:AMPARAMS|DCode=53|XSize=2.5mm|YSize=2.5mm|CornerRadius=0.625mm|HoleSize=0mm|Usage=FLASHONLY|Rotation=90.000|XOffset=0mm|YOffset=0mm|HoleType=Round|Shape=RoundedRectangle|*
%AMROUNDEDRECTD53*
21,1,2.5000,1.2500,0,0,90.0*
21,1,1.2500,2.5000,0,0,90.0*
1,1,1.2500,0.6250,0.6250*
1,1,1.2500,0.6250,-0.6250*
1,1,1.2500,-0.6250,-0.6250*
1,1,1.2500,-0.6250,0.6250*
%
%ADD53ROUNDEDRECTD53*%
%ADD54C,2.5000*%
%ADD55C,0.7000*%
G36*
X997515Y2612D02*
X2612D01*
Y497515D01*
X997515D01*
Y2612D01*
D02*
G37*
%LPC*%
G36*
X173401Y443500D02*
X170899D01*
X168483Y442853D01*
X166317Y441602D01*
X164548Y439833D01*
X163297Y437667D01*
X162807Y435838D01*
X161493D01*
X161003Y437667D01*
X159752Y439833D01*
X157983Y441602D01*
X155817Y442853D01*
X153401Y443500D01*
X152900D01*
Y434000D01*
Y424500D01*
X153401D01*
X155817Y425147D01*
X157983Y426398D01*
X159752Y428167D01*
X161003Y430333D01*
X161493Y432162D01*
X162807D01*
X163297Y430333D01*
X164548Y428167D01*
X166317Y426398D01*
X168483Y425147D01*
X170899Y424500D01*
X173401D01*
X175817Y425147D01*
X177983Y426398D01*
X179752Y428167D01*
X181003Y430333D01*
X181650Y432749D01*
Y435251D01*
X181003Y437667D01*
X179752Y439833D01*
X177983Y441602D01*
X175817Y442853D01*
X173401Y443500D01*
D02*
G37*
G36*
X951639Y468613D02*
X948488D01*
X948241Y468563D01*
X947990D01*
X944899Y467949D01*
X944667Y467853D01*
X944421Y467804D01*
X941509Y466597D01*
X941301Y466458D01*
X941068Y466362D01*
X938448Y464611D01*
X938270Y464433D01*
X938062Y464294D01*
X935833Y462065D01*
X935694Y461856D01*
X935516Y461679D01*
X933765Y459058D01*
X933669Y458826D01*
X933530Y458618D01*
X932323Y455706D01*
X932274Y455460D01*
X932178Y455228D01*
X931563Y452137D01*
Y451886D01*
X931515Y451639D01*
Y448488D01*
X931563Y448241D01*
Y447990D01*
X932178Y444899D01*
X932274Y444667D01*
X932323Y444421D01*
X933530Y441509D01*
X933669Y441301D01*
X933765Y441068D01*
X935516Y438448D01*
X935694Y438270D01*
X935833Y438062D01*
X938062Y435833D01*
X938270Y435694D01*
X938448Y435516D01*
X941068Y433765D01*
X941301Y433669D01*
X941509Y433530D01*
X944421Y432323D01*
X944667Y432274D01*
X944899Y432178D01*
X947990Y431563D01*
X948241D01*
X948488Y431515D01*
X951639D01*
X951886Y431563D01*
X952137D01*
X955228Y432178D01*
X955460Y432274D01*
X955706Y432323D01*
X958618Y433530D01*
X958827Y433669D01*
X959058Y433765D01*
X961679Y435516D01*
X961857Y435694D01*
X962065Y435833D01*
X964294Y438062D01*
X964433Y438270D01*
X964611Y438448D01*
X966362Y441068D01*
X966458Y441301D01*
X966597Y441509D01*
X967803Y444421D01*
X967852Y444667D01*
X967949Y444899D01*
X968564Y447990D01*
Y448242D01*
X968612Y448488D01*
Y451639D01*
X968564Y451885D01*
Y452137D01*
X967949Y455228D01*
X967852Y455460D01*
X967803Y455706D01*
X966597Y458618D01*
X966458Y458826D01*
X966362Y459058D01*
X964611Y461679D01*
X964433Y461857D01*
X964294Y462065D01*
X962065Y464294D01*
X961857Y464433D01*
X961679Y464611D01*
X959058Y466362D01*
X958826Y466458D01*
X958618Y466597D01*
X955706Y467804D01*
X955460Y467853D01*
X955228Y467949D01*
X952137Y468563D01*
X951886D01*
X951639Y468613D01*
D02*
G37*
G36*
X51639D02*
X48488D01*
X48242Y468563D01*
X47990D01*
X44899Y467949D01*
X44667Y467853D01*
X44421Y467804D01*
X41509Y466597D01*
X41301Y466458D01*
X41069Y466362D01*
X38448Y464611D01*
X38270Y464433D01*
X38062Y464294D01*
X35833Y462065D01*
X35694Y461856D01*
X35516Y461679D01*
X33765Y459058D01*
X33669Y458826D01*
X33530Y458618D01*
X32323Y455706D01*
X32274Y455460D01*
X32178Y455228D01*
X31563Y452137D01*
Y451886D01*
X31514Y451639D01*
Y448488D01*
X31563Y448241D01*
Y447990D01*
X32178Y444899D01*
X32274Y444667D01*
X32323Y444421D01*
X33530Y441509D01*
X33669Y441301D01*
X33765Y441068D01*
X35516Y438448D01*
X35694Y438270D01*
X35833Y438062D01*
X38062Y435833D01*
X38270Y435694D01*
X38448Y435516D01*
X41069Y433765D01*
X41301Y433669D01*
X41509Y433530D01*
X44421Y432323D01*
X44667Y432274D01*
X44899Y432178D01*
X47990Y431563D01*
X48241D01*
X48488Y431515D01*
X51639D01*
X51886Y431563D01*
X52137D01*
X55228Y432178D01*
X55460Y432274D01*
X55706Y432323D01*
X58618Y433530D01*
X58826Y433669D01*
X59058Y433765D01*
X61679Y435516D01*
X61857Y435694D01*
X62065Y435833D01*
X64294Y438062D01*
X64433Y438270D01*
X64611Y438448D01*
X66362Y441068D01*
X66458Y441301D01*
X66597Y441509D01*
X67804Y444421D01*
X67853Y444667D01*
X67949Y444899D01*
X68563Y447990D01*
Y448242D01*
X68612Y448488D01*
Y451639D01*
X68563Y451885D01*
Y452137D01*
X67949Y455228D01*
X67853Y455460D01*
X67804Y455706D01*
X66597Y458618D01*
X66458Y458826D01*
X66362Y459058D01*
X64611Y461679D01*
X64433Y461857D01*
X64294Y462065D01*
X62065Y464294D01*
X61856Y464433D01*
X61679Y464611D01*
X59058Y466362D01*
X58826Y466458D01*
X58618Y466597D01*
X55706Y467804D01*
X55460Y467853D01*
X55228Y467949D01*
X52137Y468563D01*
X51885D01*
X51639Y468613D01*
D02*
G37*
G36*
X135900Y443613D02*
X128400D01*
X126157Y443166D01*
X124255Y441895D01*
X122984Y439994D01*
X122537Y437750D01*
Y430250D01*
X122984Y428007D01*
X124255Y426105D01*
X126157Y424834D01*
X128312Y424405D01*
Y415100D01*
X128661Y413344D01*
X129656Y411856D01*
X148756Y392756D01*
X150244Y391761D01*
X152000Y391412D01*
X307810D01*
X307885Y391337D01*
X309906Y390500D01*
X312094D01*
X314116Y391337D01*
X315663Y392884D01*
X316500Y394906D01*
Y397094D01*
X315663Y399115D01*
X314116Y400663D01*
X312094Y401500D01*
X309906D01*
X307885Y400663D01*
X307810Y400588D01*
X153900D01*
X137488Y417001D01*
Y424703D01*
X138144Y424834D01*
X140045Y426105D01*
X141316Y428007D01*
X141763Y430250D01*
Y431154D01*
X143033Y431321D01*
X143297Y430333D01*
X144548Y428167D01*
X146317Y426398D01*
X148483Y425147D01*
X150899Y424500D01*
X151400D01*
Y434000D01*
Y443500D01*
X150899D01*
X148483Y442853D01*
X146317Y441602D01*
X144548Y439833D01*
X143297Y437667D01*
X143033Y436679D01*
X141763Y436846D01*
Y437750D01*
X141316Y439994D01*
X140045Y441895D01*
X138144Y443166D01*
X135900Y443613D01*
D02*
G37*
G36*
X312094Y420500D02*
X309906D01*
X307885Y419663D01*
X306337Y418116D01*
X305500Y416094D01*
Y413906D01*
X306337Y411884D01*
X307885Y410337D01*
X309906Y409500D01*
X312094D01*
X314116Y410337D01*
X314190Y410412D01*
X423100D01*
X473412Y360099D01*
Y329190D01*
X473337Y329115D01*
X472500Y327094D01*
Y324906D01*
X473337Y322884D01*
X474884Y321337D01*
X476906Y320500D01*
X479094D01*
X481115Y321337D01*
X482663Y322884D01*
X483500Y324906D01*
Y327094D01*
X482663Y329115D01*
X482588Y329190D01*
Y362000D01*
X482239Y363756D01*
X481244Y365244D01*
X481244Y365244D01*
X428244Y418244D01*
X426756Y419239D01*
X425000Y419588D01*
X314190D01*
X314116Y419663D01*
X312094Y420500D01*
D02*
G37*
G36*
X108821Y335200D02*
X107650D01*
Y316450D01*
X126400D01*
Y317621D01*
X125651Y321388D01*
X124181Y324937D01*
X122047Y328130D01*
X119331Y330847D01*
X116137Y332981D01*
X112588Y334451D01*
X108821Y335200D01*
D02*
G37*
G36*
X106150D02*
X104979D01*
X101212Y334451D01*
X97663Y332981D01*
X94469Y330847D01*
X91753Y328130D01*
X89619Y324937D01*
X88149Y321388D01*
X87400Y317621D01*
Y316450D01*
X106150D01*
Y335200D01*
D02*
G37*
G36*
X126400Y314950D02*
X107650D01*
Y296200D01*
X108821D01*
X112588Y296949D01*
X116137Y298419D01*
X119331Y300553D01*
X122047Y303269D01*
X124181Y306463D01*
X125651Y310012D01*
X126400Y313779D01*
Y314950D01*
D02*
G37*
G36*
X106150D02*
X87400D01*
Y313779D01*
X88149Y310012D01*
X89619Y306463D01*
X91753Y303269D01*
X94469Y300553D01*
X97663Y298419D01*
X101212Y296949D01*
X104979Y296200D01*
X106150D01*
Y314950D01*
D02*
G37*
G36*
X479094Y300500D02*
X476906D01*
X474884Y299663D01*
X473337Y298116D01*
X472500Y296094D01*
Y295989D01*
X465005Y288494D01*
X424690D01*
X424616Y288569D01*
X422594Y289406D01*
X420406D01*
X418385Y288569D01*
X418310Y288494D01*
X328284D01*
X328116Y288663D01*
X326094Y289500D01*
X323906D01*
X321884Y288663D01*
X320337Y287115D01*
X319500Y285094D01*
Y282906D01*
X320337Y280884D01*
X321884Y279337D01*
X323906Y278500D01*
X326094D01*
X328068Y279318D01*
X418310D01*
X418385Y279243D01*
X420406Y278406D01*
X422594D01*
X424616Y279243D01*
X424690Y279318D01*
X466906D01*
X468662Y279667D01*
X470150Y280662D01*
X478989Y289500D01*
X479094D01*
X481115Y290337D01*
X482663Y291884D01*
X483500Y293906D01*
Y296094D01*
X482663Y298116D01*
X481115Y299663D01*
X479094Y300500D01*
D02*
G37*
G36*
X135267Y294620D02*
X132733D01*
X130287Y293964D01*
X128093Y292698D01*
X126302Y290907D01*
X125036Y288713D01*
X124380Y286266D01*
Y283734D01*
X125036Y281287D01*
X126302Y279093D01*
X128093Y277302D01*
X130287Y276036D01*
X132733Y275380D01*
X135267D01*
X137713Y276036D01*
X139907Y277302D01*
X141698Y279093D01*
X142964Y281287D01*
X143620Y283734D01*
Y286266D01*
X142964Y288713D01*
X141698Y290907D01*
X139907Y292698D01*
X137713Y293964D01*
X135267Y294620D01*
D02*
G37*
G36*
X823094Y366500D02*
X820906D01*
X818885Y365663D01*
X817337Y364115D01*
X816500Y362094D01*
Y361989D01*
X785756Y331244D01*
X784761Y329756D01*
X784412Y328000D01*
Y262190D01*
X784337Y262115D01*
X783500Y260094D01*
Y257906D01*
X784337Y255884D01*
X785884Y254337D01*
X787906Y253500D01*
X790094D01*
X792115Y254337D01*
X793663Y255884D01*
X794500Y257906D01*
Y260094D01*
X793663Y262115D01*
X793588Y262190D01*
Y326100D01*
X822989Y355500D01*
X823094D01*
X825116Y356337D01*
X826663Y357884D01*
X827500Y359906D01*
Y362094D01*
X826663Y364115D01*
X825116Y365663D01*
X823094Y366500D01*
D02*
G37*
G36*
X261094Y348500D02*
X258906D01*
X256884Y347663D01*
X255337Y346115D01*
X254500Y344094D01*
Y341906D01*
X255337Y339884D01*
X255412Y339810D01*
Y258190D01*
X255337Y258116D01*
X254500Y256094D01*
Y253906D01*
X255337Y251884D01*
X256884Y250337D01*
X258906Y249500D01*
X261094D01*
X263116Y250337D01*
X264663Y251884D01*
X265500Y253906D01*
Y256094D01*
X264663Y258116D01*
X264588Y258190D01*
Y339810D01*
X264663Y339884D01*
X265500Y341906D01*
Y344094D01*
X264663Y346115D01*
X263116Y347663D01*
X261094Y348500D01*
D02*
G37*
G36*
X135267Y269620D02*
X132733D01*
X130287Y268964D01*
X128093Y267698D01*
X126302Y265907D01*
X125036Y263713D01*
X124380Y261266D01*
Y258734D01*
X125036Y256287D01*
X126302Y254093D01*
X128093Y252302D01*
X130287Y251036D01*
X131698Y250657D01*
Y249343D01*
X130287Y248964D01*
X128093Y247698D01*
X126302Y245907D01*
X125036Y243713D01*
X124380Y241266D01*
Y238734D01*
X125036Y236287D01*
X126302Y234093D01*
X128093Y232302D01*
X130287Y231036D01*
X132733Y230380D01*
X135267D01*
X137713Y231036D01*
X139907Y232302D01*
X141698Y234093D01*
X142964Y236287D01*
X143620Y238734D01*
Y241266D01*
X142964Y243713D01*
X141698Y245907D01*
X139907Y247698D01*
X137713Y248964D01*
X136302Y249343D01*
Y250657D01*
X137713Y251036D01*
X139907Y252302D01*
X141698Y254093D01*
X142964Y256287D01*
X143620Y258734D01*
Y261266D01*
X142964Y263713D01*
X141698Y265907D01*
X139907Y267698D01*
X137713Y268964D01*
X135267Y269620D01*
D02*
G37*
G36*
Y224620D02*
X134750D01*
Y215750D01*
X143620D01*
Y216266D01*
X142964Y218713D01*
X141698Y220907D01*
X139907Y222698D01*
X137713Y223964D01*
X135267Y224620D01*
D02*
G37*
G36*
X133250D02*
X132733D01*
X130287Y223964D01*
X128093Y222698D01*
X126302Y220907D01*
X125036Y218713D01*
X124380Y216266D01*
Y215750D01*
X133250D01*
Y224620D01*
D02*
G37*
G36*
X143620Y214250D02*
X134750D01*
Y205380D01*
X135267D01*
X137713Y206036D01*
X139907Y207302D01*
X141698Y209093D01*
X142964Y211287D01*
X143620Y213734D01*
Y214250D01*
D02*
G37*
G36*
X133250D02*
X124380D01*
Y213734D01*
X125036Y211287D01*
X126302Y209093D01*
X128093Y207302D01*
X130287Y206036D01*
X132733Y205380D01*
X133250D01*
Y214250D01*
D02*
G37*
G36*
X108821Y203800D02*
X107650D01*
Y185050D01*
X126400D01*
Y186221D01*
X125651Y189988D01*
X124181Y193537D01*
X122047Y196730D01*
X119331Y199447D01*
X116137Y201581D01*
X112588Y203051D01*
X108821Y203800D01*
D02*
G37*
G36*
X106150D02*
X104979D01*
X101212Y203051D01*
X97663Y201581D01*
X94469Y199447D01*
X91753Y196730D01*
X89619Y193537D01*
X88149Y189988D01*
X87400Y186221D01*
Y185050D01*
X106150D01*
Y203800D01*
D02*
G37*
G36*
X126400Y183550D02*
X107650D01*
Y164800D01*
X108821D01*
X112588Y165549D01*
X116137Y167019D01*
X119331Y169153D01*
X122047Y171870D01*
X124181Y175063D01*
X125651Y178612D01*
X126400Y182379D01*
Y183550D01*
D02*
G37*
G36*
X106150D02*
X87400D01*
Y182379D01*
X88149Y178612D01*
X89619Y175063D01*
X91753Y171870D01*
X94469Y169153D01*
X97663Y167019D01*
X101212Y165549D01*
X104979Y164800D01*
X106150D01*
Y183550D01*
D02*
G37*
G36*
X791909Y114501D02*
X790750D01*
Y100751D01*
X804500D01*
Y101910D01*
X803512Y105598D01*
X801603Y108904D01*
X798903Y111604D01*
X795597Y113513D01*
X791909Y114501D01*
D02*
G37*
G36*
X789250D02*
X788091D01*
X784403Y113513D01*
X781097Y111604D01*
X778397Y108904D01*
X776488Y105598D01*
X775500Y101910D01*
Y100751D01*
X789250D01*
Y114501D01*
D02*
G37*
G36*
X551909D02*
X550750D01*
Y100751D01*
X564500D01*
Y101910D01*
X563512Y105598D01*
X561603Y108904D01*
X558903Y111604D01*
X555597Y113513D01*
X551909Y114501D01*
D02*
G37*
G36*
X549250D02*
X548091D01*
X544403Y113513D01*
X541097Y111604D01*
X538397Y108904D01*
X536488Y105598D01*
X535500Y101910D01*
Y100751D01*
X549250D01*
Y114501D01*
D02*
G37*
G36*
X311909Y114500D02*
X310750D01*
Y100750D01*
X324500D01*
Y101909D01*
X323512Y105597D01*
X321603Y108903D01*
X318903Y111603D01*
X315597Y113512D01*
X311909Y114500D01*
D02*
G37*
G36*
X309250D02*
X308091D01*
X304403Y113512D01*
X301097Y111603D01*
X298397Y108903D01*
X296488Y105597D01*
X295500Y101909D01*
Y100750D01*
X309250D01*
Y114500D01*
D02*
G37*
G36*
X804500Y99251D02*
X790750D01*
Y85501D01*
X791909D01*
X795597Y86489D01*
X798903Y88398D01*
X801603Y91098D01*
X803512Y94404D01*
X804500Y98092D01*
Y99251D01*
D02*
G37*
G36*
X789250D02*
X775500D01*
Y98092D01*
X776488Y94404D01*
X778397Y91098D01*
X781097Y88398D01*
X784403Y86489D01*
X788091Y85501D01*
X789250D01*
Y99251D01*
D02*
G37*
G36*
X564500Y99251D02*
X550750D01*
Y85501D01*
X551909D01*
X555597Y86489D01*
X558903Y88398D01*
X561603Y91098D01*
X563512Y94404D01*
X564500Y98092D01*
Y99251D01*
D02*
G37*
G36*
X549250D02*
X535500D01*
Y98092D01*
X536488Y94404D01*
X538397Y91098D01*
X541097Y88398D01*
X544403Y86489D01*
X548091Y85501D01*
X549250D01*
Y99251D01*
D02*
G37*
G36*
X324500Y99250D02*
X310750D01*
Y85500D01*
X311909D01*
X315597Y86488D01*
X318903Y88397D01*
X321603Y91097D01*
X323512Y94403D01*
X324500Y98091D01*
Y99250D01*
D02*
G37*
G36*
X309250D02*
X295500D01*
Y98091D01*
X296488Y94403D01*
X298397Y91097D01*
X301097Y88397D01*
X304403Y86488D01*
X308091Y85500D01*
X309250D01*
Y99250D01*
D02*
G37*
G36*
X746250Y114572D02*
X733750D01*
X731596Y114289D01*
X729589Y113457D01*
X727866Y112135D01*
X726544Y110412D01*
X725712Y108405D01*
X725429Y106251D01*
Y93751D01*
X725712Y91597D01*
X726544Y89590D01*
X727866Y87867D01*
X729589Y86545D01*
X731596Y85713D01*
X733750Y85430D01*
X746250D01*
X748404Y85713D01*
X750411Y86545D01*
X752134Y87867D01*
X753456Y89590D01*
X754288Y91597D01*
X754571Y93751D01*
Y106251D01*
X754288Y108405D01*
X753456Y110412D01*
X752134Y112135D01*
X750411Y113457D01*
X748404Y114289D01*
X746250Y114572D01*
D02*
G37*
G36*
X506250D02*
X493750D01*
X491596Y114289D01*
X489589Y113457D01*
X487866Y112135D01*
X486544Y110412D01*
X485712Y108405D01*
X485429Y106251D01*
Y93751D01*
X485712Y91597D01*
X486544Y89590D01*
X487866Y87867D01*
X489589Y86545D01*
X491596Y85713D01*
X493750Y85430D01*
X506250D01*
X508404Y85713D01*
X510411Y86545D01*
X512134Y87867D01*
X513456Y89590D01*
X514288Y91597D01*
X514571Y93751D01*
Y106251D01*
X514288Y108405D01*
X513456Y110412D01*
X512134Y112135D01*
X510411Y113457D01*
X508404Y114289D01*
X506250Y114572D01*
D02*
G37*
G36*
X266250Y114571D02*
X253750D01*
X251596Y114288D01*
X249589Y113456D01*
X247866Y112134D01*
X246544Y110411D01*
X245712Y108404D01*
X245429Y106250D01*
Y93750D01*
X245712Y91596D01*
X246544Y89589D01*
X247866Y87866D01*
X249589Y86544D01*
X251596Y85712D01*
X253750Y85429D01*
X266250D01*
X268404Y85712D01*
X270411Y86544D01*
X272134Y87866D01*
X273456Y89589D01*
X274288Y91596D01*
X274571Y93750D01*
Y106250D01*
X274288Y108404D01*
X273456Y110411D01*
X272134Y112134D01*
X270411Y113456D01*
X268404Y114288D01*
X266250Y114571D01*
D02*
G37*
G36*
X951639Y68612D02*
X948488D01*
X948241Y68563D01*
X947990D01*
X944899Y67949D01*
X944667Y67853D01*
X944421Y67804D01*
X941509Y66597D01*
X941301Y66458D01*
X941068Y66362D01*
X938448Y64611D01*
X938270Y64433D01*
X938062Y64294D01*
X935833Y62065D01*
X935694Y61856D01*
X935516Y61679D01*
X933765Y59058D01*
X933669Y58826D01*
X933530Y58618D01*
X932323Y55706D01*
X932274Y55460D01*
X932178Y55228D01*
X931563Y52137D01*
Y51886D01*
X931515Y51639D01*
Y48488D01*
X931563Y48241D01*
Y47990D01*
X932178Y44899D01*
X932274Y44667D01*
X932323Y44421D01*
X933530Y41509D01*
X933669Y41301D01*
X933765Y41069D01*
X935516Y38448D01*
X935694Y38270D01*
X935833Y38062D01*
X938062Y35833D01*
X938270Y35694D01*
X938448Y35516D01*
X941068Y33765D01*
X941301Y33669D01*
X941509Y33530D01*
X944421Y32323D01*
X944667Y32274D01*
X944899Y32178D01*
X947990Y31563D01*
X948241D01*
X948488Y31514D01*
X951639D01*
X951886Y31563D01*
X952137D01*
X955228Y32178D01*
X955460Y32274D01*
X955706Y32323D01*
X958618Y33530D01*
X958827Y33669D01*
X959058Y33765D01*
X961679Y35516D01*
X961857Y35694D01*
X962065Y35833D01*
X964294Y38062D01*
X964433Y38270D01*
X964611Y38448D01*
X966362Y41069D01*
X966458Y41301D01*
X966597Y41509D01*
X967803Y44421D01*
X967852Y44667D01*
X967949Y44899D01*
X968564Y47990D01*
Y48242D01*
X968612Y48488D01*
Y51639D01*
X968564Y51885D01*
Y52137D01*
X967949Y55228D01*
X967852Y55460D01*
X967803Y55706D01*
X966597Y58618D01*
X966458Y58826D01*
X966362Y59058D01*
X964611Y61679D01*
X964433Y61857D01*
X964294Y62065D01*
X962065Y64294D01*
X961857Y64433D01*
X961679Y64611D01*
X959058Y66362D01*
X958826Y66458D01*
X958618Y66597D01*
X955706Y67804D01*
X955460Y67853D01*
X955228Y67949D01*
X952137Y68563D01*
X951886D01*
X951639Y68612D01*
D02*
G37*
G36*
X51639D02*
X48488D01*
X48242Y68563D01*
X47990D01*
X44899Y67949D01*
X44667Y67853D01*
X44421Y67804D01*
X41509Y66597D01*
X41301Y66458D01*
X41069Y66362D01*
X38448Y64611D01*
X38270Y64433D01*
X38062Y64294D01*
X35833Y62065D01*
X35694Y61856D01*
X35516Y61679D01*
X33765Y59058D01*
X33669Y58826D01*
X33530Y58618D01*
X32323Y55706D01*
X32274Y55460D01*
X32178Y55228D01*
X31563Y52137D01*
Y51886D01*
X31514Y51639D01*
Y48488D01*
X31563Y48241D01*
Y47990D01*
X32178Y44899D01*
X32274Y44667D01*
X32323Y44421D01*
X33530Y41509D01*
X33669Y41301D01*
X33765Y41069D01*
X35516Y38448D01*
X35694Y38270D01*
X35833Y38062D01*
X38062Y35833D01*
X38270Y35694D01*
X38448Y35516D01*
X41069Y33765D01*
X41301Y33669D01*
X41509Y33530D01*
X44421Y32323D01*
X44667Y32274D01*
X44899Y32178D01*
X47990Y31563D01*
X48241D01*
X48488Y31514D01*
X51639D01*
X51886Y31563D01*
X52137D01*
X55228Y32178D01*
X55460Y32274D01*
X55706Y32323D01*
X58618Y33530D01*
X58826Y33669D01*
X59058Y33765D01*
X61679Y35516D01*
X61857Y35694D01*
X62065Y35833D01*
X64294Y38062D01*
X64433Y38270D01*
X64611Y38448D01*
X66362Y41069D01*
X66458Y41301D01*
X66597Y41509D01*
X67804Y44421D01*
X67853Y44667D01*
X67949Y44899D01*
X68563Y47990D01*
Y48242D01*
X68612Y48488D01*
Y51639D01*
X68563Y51885D01*
Y52137D01*
X67949Y55228D01*
X67853Y55460D01*
X67804Y55706D01*
X66597Y58618D01*
X66458Y58826D01*
X66362Y59058D01*
X64611Y61679D01*
X64433Y61857D01*
X64294Y62065D01*
X62065Y64294D01*
X61856Y64433D01*
X61679Y64611D01*
X59058Y66362D01*
X58826Y66458D01*
X58618Y66597D01*
X55706Y67804D01*
X55460Y67853D01*
X55228Y67949D01*
X52137Y68563D01*
X51885D01*
X51639Y68612D01*
D02*
G37*
G36*
X633250Y54571D02*
X620750D01*
X618596Y54288D01*
X616589Y53456D01*
X614866Y52134D01*
X613544Y50411D01*
X612712Y48404D01*
X612429Y46250D01*
Y33750D01*
X612712Y31596D01*
X613544Y29589D01*
X614866Y27866D01*
X616589Y26544D01*
X618596Y25712D01*
X620750Y25429D01*
X633250D01*
X635404Y25712D01*
X637411Y26544D01*
X639134Y27866D01*
X640456Y29589D01*
X641288Y31596D01*
X641571Y33750D01*
Y46250D01*
X641288Y48404D01*
X640456Y50411D01*
X639134Y52134D01*
X637411Y53456D01*
X635404Y54288D01*
X633250Y54571D01*
D02*
G37*
G36*
X395250D02*
X382750D01*
X380596Y54288D01*
X378589Y53456D01*
X376866Y52134D01*
X375544Y50411D01*
X374712Y48404D01*
X374429Y46250D01*
Y33750D01*
X374712Y31596D01*
X375544Y29589D01*
X376866Y27866D01*
X378589Y26544D01*
X380596Y25712D01*
X382750Y25429D01*
X395250D01*
X397404Y25712D01*
X399411Y26544D01*
X401134Y27866D01*
X402456Y29589D01*
X403288Y31596D01*
X403571Y33750D01*
Y46250D01*
X403288Y48404D01*
X402456Y50411D01*
X401134Y52134D01*
X399411Y53456D01*
X397404Y54288D01*
X395250Y54571D01*
D02*
G37*
G36*
X665100Y273060D02*
X663273Y272820D01*
X661570Y272115D01*
X660107Y270992D01*
X658986Y269530D01*
X658280Y267827D01*
X658040Y266000D01*
Y52667D01*
X656197Y51603D01*
X653497Y48903D01*
X651588Y45597D01*
X650600Y41909D01*
Y38091D01*
X651151Y36036D01*
X636175Y21060D01*
X456025D01*
X441049Y36036D01*
X441600Y38091D01*
Y41909D01*
X440612Y45597D01*
X438703Y48903D01*
X436003Y51603D01*
X432697Y53512D01*
X429009Y54500D01*
X425191D01*
X421503Y53512D01*
X418197Y51603D01*
X415497Y48903D01*
X413588Y45597D01*
X412600Y41909D01*
Y38091D01*
X413588Y34403D01*
X415497Y31097D01*
X418197Y28397D01*
X421503Y26488D01*
X425191Y25500D01*
X429009D01*
X431064Y26051D01*
X448108Y9008D01*
X449570Y7886D01*
X451273Y7180D01*
X453100Y6940D01*
X639100D01*
X640927Y7180D01*
X642630Y7886D01*
X644092Y9008D01*
X661136Y26051D01*
X663191Y25500D01*
X667009D01*
X670697Y26488D01*
X674003Y28397D01*
X676703Y31097D01*
X678612Y34403D01*
X679600Y38091D01*
Y41909D01*
X678612Y45597D01*
X676703Y48903D01*
X674003Y51603D01*
X672160Y52667D01*
Y266000D01*
X671920Y267827D01*
X671215Y269530D01*
X670092Y270992D01*
X668630Y272115D01*
X666927Y272820D01*
X665100Y273060D01*
D02*
G37*
%LPD*%
D46*
X132900Y415100D02*
Y434000D01*
Y415100D02*
X152000Y396000D01*
X311000D01*
X325000Y284000D02*
X325094Y283906D01*
X421500D01*
X466906D01*
X478000Y295000D01*
X789000Y259000D02*
Y328000D01*
X822000Y361000D01*
X425000Y415000D02*
X478000Y362000D01*
Y362000D01*
Y326000D02*
Y362000D01*
X311000Y415000D02*
X425000D01*
X260000Y255000D02*
Y343000D01*
D47*
X665100Y40000D02*
Y266000D01*
X427100Y40000D02*
X453100Y14000D01*
X639100D02*
X665100Y40000D01*
X453100Y14000D02*
X639100D01*
D49*
X134000Y215000D02*
D03*
Y240000D02*
D03*
Y260000D02*
D03*
Y285000D02*
D03*
D50*
X106900Y315700D02*
D03*
Y184300D02*
D03*
D51*
X132150Y434000D02*
D03*
D52*
X152150D02*
D03*
X172150D02*
D03*
D53*
X389000Y40000D02*
D03*
X500000Y100001D02*
D03*
X627000Y40000D02*
D03*
X740000Y100001D02*
D03*
X260000Y100000D02*
D03*
D54*
X427100Y40000D02*
D03*
X550000Y100001D02*
D03*
X665100Y40000D02*
D03*
X790000Y100001D02*
D03*
X310000Y100000D02*
D03*
D55*
X152000Y414000D02*
D03*
X196000Y429900D02*
D03*
X217000D02*
D03*
X207000Y440900D02*
D03*
X752900Y392800D02*
D03*
X836800Y186900D02*
D03*
X824000Y174100D02*
D03*
X806000Y174100D02*
D03*
X788000Y174100D02*
D03*
X771000Y174000D02*
D03*
X465000Y300000D02*
D03*
X350900Y449500D02*
D03*
X339900Y460500D02*
D03*
X280000Y465100D02*
D03*
X290000Y454100D02*
D03*
X269000D02*
D03*
X455000Y266000D02*
D03*
X544000Y296000D02*
D03*
X531000Y284000D02*
D03*
X766300Y241500D02*
D03*
X780000Y233000D02*
D03*
X780000Y250000D02*
D03*
X833800Y274000D02*
D03*
X819800Y263000D02*
D03*
X820000Y285000D02*
D03*
X375000Y431000D02*
D03*
X325000Y284000D02*
D03*
X324000Y300000D02*
D03*
X419000Y351000D02*
D03*
X407000Y364000D02*
D03*
X345000Y300000D02*
D03*
X335000Y311000D02*
D03*
X339000Y351000D02*
D03*
X351000Y364000D02*
D03*
X421500Y283906D02*
D03*
X251000Y299000D02*
D03*
X271000D02*
D03*
X665000Y266000D02*
D03*
Y257000D02*
D03*
Y248000D02*
D03*
X820000Y307000D02*
D03*
X834000Y296000D02*
D03*
X812500Y333000D02*
D03*
X781000Y334000D02*
D03*
X800000Y360000D02*
D03*
X738000Y368000D02*
D03*
X716000Y356000D02*
D03*
Y380000D02*
D03*
X822000Y361000D02*
D03*
X789000Y259000D02*
D03*
X478000Y326000D02*
D03*
X311000Y415000D02*
D03*
Y396000D02*
D03*
X228000Y384000D02*
D03*
X260000Y343000D02*
D03*
Y255000D02*
D03*
X478000Y295000D02*
D03*
M02*
