G04*
G04 #@! TF.GenerationSoftware,Altium Limited,Altium Designer,23.4.1 (23)*
G04*
G04 Layer_Color=65535*
%FSLAX44Y44*%
%MOMM*%
G71*
G04*
G04 #@! TF.SameCoordinates,1CC85F37-83BB-4277-A685-93E53EEA7533*
G04*
G04*
G04 #@! TF.FilePolarity,Positive*
G04*
G01*
G75*
%ADD10C,0.2500*%
%ADD11C,0.2000*%
%ADD12C,0.1500*%
%ADD13C,0.2540*%
D10*
X781250Y250000D02*
G03*
X781250Y250000I-1250J0D01*
G01*
X814250Y344250D02*
G03*
X814250Y344250I-1250J0D01*
G01*
X769250Y273750D02*
G03*
X769250Y273750I-1250J0D01*
G01*
X717250Y312150D02*
G03*
X717250Y312150I-1250J0D01*
G01*
X757750Y232500D02*
G03*
X757750Y232500I-1250J0D01*
G01*
X277750D02*
G03*
X277750Y232500I-1250J0D01*
G01*
X517750Y233500D02*
G03*
X517750Y233500I-1250J0D01*
G01*
X341250Y422000D02*
G03*
X341250Y422000I-1250J0D01*
G01*
D11*
X789500Y245500D02*
X800500D01*
Y239000D02*
Y245500D01*
X789500Y218500D02*
X800500D01*
Y225000D01*
X788000Y330000D02*
X810000D01*
X788000Y336000D02*
X810000D01*
X788000Y330000D02*
Y336000D01*
X810000Y330000D02*
Y336000D01*
X771000Y288000D02*
X793000D01*
X771000Y282000D02*
X793000D01*
Y288000D01*
X771000Y282000D02*
Y288000D01*
X693500Y379200D02*
X697000D01*
Y311200D02*
Y379200D01*
X693500Y311200D02*
X697000D01*
X450000Y2000D02*
Y81000D01*
X362000Y2000D02*
X450000D01*
X362000Y81000D02*
X450000D01*
X362000Y2000D02*
Y81000D01*
X465000Y1001D02*
Y121001D01*
X585000D01*
Y1001D02*
Y121001D01*
Y1001D02*
X585001Y1000D01*
X465001D02*
X585001D01*
X465000Y1001D02*
X465001Y1000D01*
X688000Y2000D02*
Y81000D01*
X600000Y2000D02*
X688000D01*
X600000Y81000D02*
X688000D01*
X600000Y2000D02*
Y81000D01*
X705000Y1001D02*
Y121001D01*
X825000D01*
Y1001D02*
Y121001D01*
Y1001D02*
X825001Y1000D01*
X705001D02*
X825001D01*
X705000Y1001D02*
X705001Y1000D01*
X359000Y357000D02*
X361000D01*
X359000Y345000D02*
X361000D01*
X720000Y179000D02*
X725000D01*
X720000Y226000D02*
X725000D01*
X755000Y179000D02*
X760000D01*
X755000Y226000D02*
X760000D01*
X720000Y179000D02*
Y226000D01*
X760000Y179000D02*
Y226000D01*
X280000Y179000D02*
Y226000D01*
X240000Y179000D02*
Y226000D01*
X275000D02*
X280000D01*
X275000Y179000D02*
X280000D01*
X240000Y226000D02*
X245000D01*
X240000Y179000D02*
X245000D01*
X480000Y180000D02*
X485000D01*
X480000Y227000D02*
X485000D01*
X515000Y180000D02*
X520000D01*
X515000Y227000D02*
X520000D01*
X480000Y180000D02*
Y227000D01*
X520000Y180000D02*
Y227000D01*
X427250Y342000D02*
X439750D01*
X443250Y311500D02*
Y340500D01*
Y311500D02*
X448750D01*
Y340500D01*
X443250D02*
X448750D01*
X397000Y357000D02*
X399000D01*
X397000Y345000D02*
X399000D01*
X321000Y425000D02*
X331000D01*
X321000D02*
Y433000D01*
Y455000D02*
X331000D01*
X321000Y447000D02*
Y455000D01*
X445000Y274000D02*
X447000D01*
X445000Y286000D02*
X447000D01*
X225000Y1000D02*
Y121000D01*
X345000D01*
Y1000D02*
Y121000D01*
Y1000D02*
X345001Y999D01*
X225001D02*
X345001D01*
X225000Y1000D02*
X225001Y999D01*
D12*
X112650Y419000D02*
X192150D01*
Y496000D01*
X112650D02*
X192150D01*
X112650Y419000D02*
Y496000D01*
X766000Y208150D02*
X776000D01*
X766000Y179650D02*
X776000D01*
X798750Y269000D02*
Y279000D01*
X827250Y269000D02*
Y279000D01*
X819000Y208250D02*
X829000D01*
X819000Y179750D02*
X829000D01*
X774250Y375000D02*
Y385000D01*
X745750Y375000D02*
Y385000D01*
X813250Y375000D02*
Y385000D01*
X784750Y375000D02*
Y385000D01*
X798950Y291000D02*
Y301000D01*
X827450Y291000D02*
Y301000D01*
X801000Y208250D02*
X811000D01*
X801000Y179750D02*
X811000D01*
X783000Y208250D02*
X793000D01*
X783000Y179750D02*
X793000D01*
X772250Y317000D02*
Y327000D01*
X743750Y317000D02*
Y327000D01*
X193500Y277000D02*
X221500D01*
X193500D02*
Y293000D01*
X221500D01*
Y277000D02*
Y293000D01*
X526000Y288750D02*
X536000D01*
X526000Y317250D02*
X536000D01*
X330000Y307250D02*
X340000D01*
X330000Y278750D02*
X340000D01*
X202000Y437150D02*
X212000D01*
X202000Y408650D02*
X212000D01*
X175900Y417750D02*
Y418750D01*
Y409250D02*
Y410250D01*
X165900Y409250D02*
X175900D01*
X165900Y418750D02*
X175900D01*
X172150Y409250D02*
Y418750D01*
X275000Y461350D02*
X285000D01*
X275000Y432850D02*
X285000D01*
X255000Y385350D02*
X265000D01*
X255000Y356850D02*
X265000D01*
X318650Y390500D02*
Y400500D01*
X347150Y390500D02*
Y400500D01*
X173229Y356982D02*
X183229D01*
X173229Y385482D02*
X183229D01*
X195750Y359000D02*
Y369000D01*
X224250Y359000D02*
Y369000D01*
Y379000D02*
Y389000D01*
X195750Y379000D02*
Y389000D01*
X275000Y422250D02*
X285000D01*
X275000Y393750D02*
X285000D01*
X255000Y422250D02*
X265000D01*
X255000Y393750D02*
X265000D01*
X506500Y317250D02*
X516500D01*
X506500Y288750D02*
X516500D01*
X465250Y348000D02*
Y358000D01*
X436750Y348000D02*
Y358000D01*
X377500Y337500D02*
X392500D01*
X377500Y274500D02*
X392500D01*
X354000Y426250D02*
Y427250D01*
Y434750D02*
Y435750D01*
Y435750D02*
X364000D01*
X354000Y426250D02*
X364000D01*
X357750Y426250D02*
Y435750D01*
X460250Y295000D02*
Y305000D01*
X431750Y295000D02*
Y305000D01*
X487000Y288750D02*
X497000D01*
X487000Y317250D02*
X497000D01*
X821001Y144002D02*
X819002Y142003D01*
Y138004D01*
X821001Y136005D01*
X828999D01*
X830998Y138004D01*
Y142003D01*
X828999Y144002D01*
X830998Y148001D02*
Y152000D01*
Y150000D01*
X819002D01*
X821001Y148001D01*
X830998Y163996D02*
X819002D01*
X825000Y157998D01*
Y165995D01*
X766001Y144002D02*
X764002Y142003D01*
Y138004D01*
X766001Y136005D01*
X773999D01*
X775998Y138004D01*
Y142003D01*
X773999Y144002D01*
X775998Y148001D02*
Y152000D01*
Y150000D01*
X764002D01*
X766001Y148001D01*
Y157998D02*
X764002Y159997D01*
Y163996D01*
X766001Y165995D01*
X768001D01*
X770000Y163996D01*
Y161996D01*
Y163996D01*
X771999Y165995D01*
X773999D01*
X775998Y163996D01*
Y159997D01*
X773999Y157998D01*
X847002Y278999D02*
X845003Y280998D01*
X841004D01*
X839005Y278999D01*
Y271001D01*
X841004Y269002D01*
X845003D01*
X847002Y271001D01*
X851001Y269002D02*
X855000D01*
X853000D01*
Y280998D01*
X851001Y278999D01*
X868995Y269002D02*
X860998D01*
X868995Y276999D01*
Y278999D01*
X866996Y280998D01*
X862997D01*
X860998Y278999D01*
X615188Y400616D02*
Y392619D01*
X619187Y388620D01*
X623185Y392619D01*
Y400616D01*
X627184D02*
X635182D01*
X631183D01*
Y388620D01*
X647178D02*
X639180D01*
X647178Y396617D01*
Y398617D01*
X645178Y400616D01*
X641180D01*
X639180Y398617D01*
X787005Y395002D02*
Y406998D01*
X793003D01*
X795002Y404999D01*
Y401000D01*
X793003Y399001D01*
X787005D01*
X791003D02*
X795002Y395002D01*
X799001D02*
X803000D01*
X801000D01*
Y406998D01*
X799001Y404999D01*
X816995Y395002D02*
X808998D01*
X816995Y402999D01*
Y404999D01*
X814996Y406998D01*
X810997D01*
X808998Y404999D01*
X739105Y395002D02*
Y406998D01*
X745103D01*
X747102Y404999D01*
Y401000D01*
X745103Y399001D01*
X739105D01*
X743104D02*
X747102Y395002D01*
X751101D02*
X755100D01*
X753100D01*
Y406998D01*
X751101Y404999D01*
X761098D02*
X763097Y406998D01*
X767096D01*
X769095Y404999D01*
Y402999D01*
X767096Y401000D01*
X765097D01*
X767096D01*
X769095Y399001D01*
Y397001D01*
X767096Y395002D01*
X763097D01*
X761098Y397001D01*
X824005Y339998D02*
Y328002D01*
X830003D01*
X832003Y330001D01*
Y337999D01*
X830003Y339998D01*
X824005D01*
X836001Y328002D02*
Y335999D01*
X840000Y339998D01*
X843999Y335999D01*
Y328002D01*
Y334000D01*
X836001D01*
X853996Y328002D02*
Y339998D01*
X847997Y334000D01*
X855995D01*
X744474Y336042D02*
Y348038D01*
X750472D01*
X752471Y346039D01*
Y342040D01*
X750472Y340041D01*
X744474D01*
X748473D02*
X752471Y336042D01*
X756470D02*
X760469D01*
X758469D01*
Y348038D01*
X756470Y346039D01*
X766467Y336042D02*
X770466D01*
X768466D01*
Y348038D01*
X766467Y346039D01*
X726005Y292998D02*
Y281002D01*
X732003D01*
X734003Y283001D01*
Y290999D01*
X732003Y292998D01*
X726005D01*
X738001Y281002D02*
Y288999D01*
X742000Y292998D01*
X745999Y288999D01*
Y281002D01*
Y287000D01*
X738001D01*
X749997Y290999D02*
X751997Y292998D01*
X755995D01*
X757995Y290999D01*
Y288999D01*
X755995Y287000D01*
X753996D01*
X755995D01*
X757995Y285001D01*
Y283001D01*
X755995Y281002D01*
X751997D01*
X749997Y283001D01*
X816005Y238998D02*
Y227002D01*
X822003D01*
X824003Y229001D01*
Y236999D01*
X822003Y238998D01*
X816005D01*
X828001Y227002D02*
Y234999D01*
X832000Y238998D01*
X835999Y234999D01*
Y227002D01*
Y233000D01*
X828001D01*
X847995Y227002D02*
X839997D01*
X847995Y234999D01*
Y236999D01*
X845995Y238998D01*
X841997D01*
X839997Y236999D01*
X847002Y300999D02*
X845002Y302998D01*
X841004D01*
X839004Y300999D01*
Y293001D01*
X841004Y291002D01*
X845002D01*
X847002Y293001D01*
X851000Y291002D02*
X854999D01*
X853000D01*
Y302998D01*
X851000Y300999D01*
X860997Y291002D02*
X864996D01*
X862997D01*
Y302998D01*
X860997Y300999D01*
X802001Y144002D02*
X800002Y142003D01*
Y138004D01*
X802001Y136005D01*
X809999D01*
X811998Y138004D01*
Y142003D01*
X809999Y144002D01*
X811998Y148001D02*
Y152000D01*
Y150000D01*
X800002D01*
X802001Y148001D01*
Y157998D02*
X800002Y159997D01*
Y163996D01*
X802001Y165995D01*
X809999D01*
X811998Y163996D01*
Y159997D01*
X809999Y157998D01*
X802001D01*
X784001Y144001D02*
X782002Y142001D01*
Y138003D01*
X784001Y136003D01*
X791999D01*
X793998Y138003D01*
Y142001D01*
X791999Y144001D01*
X784001Y147999D02*
X782002Y149999D01*
Y153997D01*
X784001Y155997D01*
X786001D01*
X788000Y153997D01*
X789999Y155997D01*
X791999D01*
X793998Y153997D01*
Y149999D01*
X791999Y147999D01*
X789999D01*
X788000Y149999D01*
X786001Y147999D01*
X784001D01*
X788000Y149999D02*
Y153997D01*
X362458Y100642D02*
X370455Y88646D01*
Y100642D02*
X362458Y88646D01*
X374454Y100642D02*
X382452D01*
Y98643D01*
X374454Y90645D01*
Y88646D01*
X600456Y100642D02*
X608453Y88646D01*
Y100642D02*
X600456Y88646D01*
X620449Y100642D02*
X616451Y98643D01*
X612452Y94644D01*
Y90645D01*
X614451Y88646D01*
X618450D01*
X620449Y90645D01*
Y92645D01*
X618450Y94644D01*
X612452D01*
X309880Y476308D02*
Y468311D01*
X313879Y464312D01*
X317877Y468311D01*
Y476308D01*
X321876D02*
X329874D01*
X325875D01*
Y464312D01*
X333872D02*
X337871D01*
X335872D01*
Y476308D01*
X333872Y474309D01*
X128005Y404998D02*
Y397001D01*
X132004Y393002D01*
X136003Y397001D01*
Y404998D01*
X140001D02*
Y393002D01*
X145999D01*
X147999Y395001D01*
Y402999D01*
X145999Y404998D01*
X140001D01*
X159995D02*
X151997D01*
Y399000D01*
X155996Y400999D01*
X157996D01*
X159995Y399000D01*
Y395001D01*
X157996Y393002D01*
X153997D01*
X151997Y395001D01*
X136005Y365002D02*
Y376998D01*
X142003D01*
X144002Y374999D01*
Y371000D01*
X142003Y369001D01*
X136005D01*
X140004D02*
X144002Y365002D01*
X148001D02*
X152000D01*
X150000D01*
Y376998D01*
X148001Y374999D01*
X157998D02*
X159997Y376998D01*
X163996D01*
X165995Y374999D01*
Y367001D01*
X163996Y365002D01*
X159997D01*
X157998Y367001D01*
Y374999D01*
X250002Y452997D02*
X261998D01*
Y446999D01*
X259999Y444999D01*
X256000D01*
X254001Y446999D01*
Y452997D01*
Y448998D02*
X250002Y444999D01*
X252001Y441001D02*
X250002Y439001D01*
Y435003D01*
X252001Y433003D01*
X259999D01*
X261998Y435003D01*
Y439001D01*
X259999Y441001D01*
X257999D01*
X256000Y439001D01*
Y433003D01*
X305998Y398003D02*
X294002D01*
Y404001D01*
X296001Y406001D01*
X300000D01*
X301999Y404001D01*
Y398003D01*
Y402002D02*
X305998Y406001D01*
X296001Y409999D02*
X294002Y411999D01*
Y415997D01*
X296001Y417997D01*
X298001D01*
X300000Y415997D01*
X301999Y417997D01*
X303999D01*
X305998Y415997D01*
Y411999D01*
X303999Y409999D01*
X301999D01*
X300000Y411999D01*
X298001Y409999D01*
X296001D01*
X300000Y411999D02*
Y415997D01*
X203003Y394002D02*
Y405998D01*
X209001D01*
X211001Y403999D01*
Y400000D01*
X209001Y398001D01*
X203003D01*
X207002D02*
X211001Y394002D01*
X214999Y405998D02*
X222997D01*
Y403999D01*
X214999Y396001D01*
Y394002D01*
X201003Y339002D02*
Y350998D01*
X207001D01*
X209001Y348999D01*
Y345000D01*
X207001Y343001D01*
X201003D01*
X205002D02*
X209001Y339002D01*
X220997Y350998D02*
X216998Y348999D01*
X212999Y345000D01*
Y341001D01*
X214999Y339002D01*
X218997D01*
X220997Y341001D01*
Y343001D01*
X218997Y345000D01*
X212999D01*
X270003Y467002D02*
Y478998D01*
X276001D01*
X278001Y476999D01*
Y473000D01*
X276001Y471001D01*
X270003D01*
X274002D02*
X278001Y467002D01*
X289997Y478998D02*
X281999D01*
Y473000D01*
X285998Y474999D01*
X287997D01*
X289997Y473000D01*
Y469001D01*
X287997Y467002D01*
X283999D01*
X281999Y469001D01*
X352003Y390002D02*
Y401998D01*
X358001D01*
X360001Y399999D01*
Y396000D01*
X358001Y394001D01*
X352003D01*
X356002D02*
X360001Y390002D01*
X369997D02*
Y401998D01*
X363999Y396000D01*
X371997D01*
X210999Y458899D02*
X212998Y460899D01*
Y464897D01*
X210999Y466897D01*
X203001D01*
X201002Y464897D01*
Y460899D01*
X203001Y458899D01*
Y454901D02*
X201002Y452901D01*
Y448903D01*
X203001Y446903D01*
X210999D01*
X212998Y448903D01*
Y452901D01*
X210999Y454901D01*
X208999D01*
X207000Y452901D01*
Y446903D01*
X225552Y140520D02*
X233549Y128524D01*
Y140520D02*
X225552Y128524D01*
X237548Y138521D02*
X239548Y140520D01*
X243546D01*
X245546Y138521D01*
Y136521D01*
X243546Y134522D01*
X241547D01*
X243546D01*
X245546Y132523D01*
Y130523D01*
X243546Y128524D01*
X239548D01*
X237548Y130523D01*
X465582Y140520D02*
X473579Y128524D01*
Y140520D02*
X465582Y128524D01*
X485575D02*
X477578D01*
X485575Y136521D01*
Y138521D01*
X483576Y140520D01*
X479577D01*
X477578Y138521D01*
X705612Y140520D02*
X713609Y128524D01*
Y140520D02*
X705612Y128524D01*
X717608D02*
X721607D01*
X719607D01*
Y140520D01*
X717608Y138521D01*
X244005Y248998D02*
Y241001D01*
X248004Y237002D01*
X252003Y241001D01*
Y248998D01*
X256001D02*
Y237002D01*
X261999D01*
X263999Y239001D01*
Y246999D01*
X261999Y248998D01*
X256001D01*
X273995Y237002D02*
Y248998D01*
X267997Y243000D01*
X275995D01*
X483005Y249998D02*
Y242001D01*
X487004Y238002D01*
X491003Y242001D01*
Y249998D01*
X495001D02*
Y238002D01*
X500999D01*
X502999Y240001D01*
Y247999D01*
X500999Y249998D01*
X495001D01*
X506997Y247999D02*
X508997Y249998D01*
X512995D01*
X514995Y247999D01*
Y245999D01*
X512995Y244000D01*
X510996D01*
X512995D01*
X514995Y242001D01*
Y240001D01*
X512995Y238002D01*
X508997D01*
X506997Y240001D01*
X348005Y421998D02*
Y414001D01*
X352004Y410002D01*
X356003Y414001D01*
Y421998D01*
X360001D02*
Y410002D01*
X365999D01*
X367999Y412001D01*
Y419999D01*
X365999Y421998D01*
X360001D01*
X379995Y410002D02*
X371997D01*
X379995Y417999D01*
Y419999D01*
X377995Y421998D01*
X373997D01*
X371997Y419999D01*
X724005Y249998D02*
Y242001D01*
X728003Y238002D01*
X732002Y242001D01*
Y249998D01*
X736001D02*
Y238002D01*
X741999D01*
X743998Y240001D01*
Y247999D01*
X741999Y249998D01*
X736001D01*
X747997Y238002D02*
X751995D01*
X749996D01*
Y249998D01*
X747997Y247999D01*
X471004Y354998D02*
Y343002D01*
X477003D01*
X479002Y345001D01*
Y352999D01*
X477003Y354998D01*
X471004D01*
X483001Y343002D02*
Y350999D01*
X486999Y354998D01*
X490998Y350999D01*
Y343002D01*
Y349000D01*
X483001D01*
X494997Y343002D02*
X498996D01*
X496996D01*
Y354998D01*
X494997Y352999D01*
X332001Y270999D02*
X330001Y272998D01*
X326003D01*
X324003Y270999D01*
Y263001D01*
X326003Y261002D01*
X330001D01*
X332001Y263001D01*
X343997Y272998D02*
X339998Y270999D01*
X335999Y267000D01*
Y263001D01*
X337999Y261002D01*
X341997D01*
X343997Y263001D01*
Y265001D01*
X341997Y267000D01*
X335999D01*
X473001Y303499D02*
X471001Y305498D01*
X467003D01*
X465003Y303499D01*
Y295501D01*
X467003Y293502D01*
X471001D01*
X473001Y295501D01*
X484997Y293502D02*
X476999D01*
X484997Y301499D01*
Y303499D01*
X482997Y305498D01*
X478999D01*
X476999Y303499D01*
X474000Y284999D02*
X472001Y286998D01*
X468002D01*
X466003Y284999D01*
Y277001D01*
X468002Y275002D01*
X472001D01*
X474000Y277001D01*
X477999Y275002D02*
X481997D01*
X479998D01*
Y286998D01*
X477999Y284999D01*
X536998Y321003D02*
X525002D01*
Y327001D01*
X527001Y329001D01*
X531000D01*
X532999Y327001D01*
Y321003D01*
Y325002D02*
X536998Y329001D01*
X527001Y332999D02*
X525002Y334999D01*
Y338997D01*
X527001Y340997D01*
X529001D01*
X531000Y338997D01*
Y336998D01*
Y338997D01*
X532999Y340997D01*
X534999D01*
X536998Y338997D01*
Y334999D01*
X534999Y332999D01*
X517998Y321003D02*
X506002D01*
Y327001D01*
X508001Y329001D01*
X512000D01*
X513999Y327001D01*
Y321003D01*
Y325002D02*
X517998Y329001D01*
Y340997D02*
Y332999D01*
X510001Y340997D01*
X508001D01*
X506002Y338997D01*
Y334999D01*
X508001Y332999D01*
X270003Y364102D02*
Y376098D01*
X276001D01*
X278000Y374099D01*
Y370100D01*
X276001Y368101D01*
X270003D01*
X274001D02*
X278000Y364102D01*
X281999D02*
X285997D01*
X283998D01*
Y376098D01*
X281999Y374099D01*
X332003Y332998D02*
Y321002D01*
X340000D01*
X343999D02*
X347997D01*
X345998D01*
Y332998D01*
X343999Y330999D01*
X207000Y269998D02*
X199003D01*
Y264000D01*
X203001D01*
X199003D01*
Y258002D01*
X210999D02*
X214997D01*
X212998D01*
Y269998D01*
X210999Y267999D01*
X488001Y328001D02*
X486002Y326001D01*
Y322003D01*
X488001Y320003D01*
X495999D01*
X497998Y322003D01*
Y326001D01*
X495999Y328001D01*
X486002Y331999D02*
Y339997D01*
X488001D01*
X495999Y331999D01*
X497998D01*
X323001Y354999D02*
X321001Y356998D01*
X317003D01*
X315003Y354999D01*
Y347001D01*
X317003Y345002D01*
X321001D01*
X323001Y347001D01*
X334997Y356998D02*
X326999D01*
Y351000D01*
X330998Y352999D01*
X332997D01*
X334997Y351000D01*
Y347001D01*
X332997Y345002D01*
X328999D01*
X326999Y347001D01*
X396001Y373999D02*
X394001Y375998D01*
X390003D01*
X388003Y373999D01*
Y366001D01*
X390003Y364002D01*
X394001D01*
X396001Y366001D01*
X405997Y364002D02*
Y375998D01*
X399999Y370000D01*
X407997D01*
X449001Y374499D02*
X447001Y376498D01*
X443003D01*
X441003Y374499D01*
Y366501D01*
X443003Y364502D01*
X447001D01*
X449001Y366501D01*
X452999Y374499D02*
X454999Y376498D01*
X458997D01*
X460997Y374499D01*
Y372499D01*
X458997Y370500D01*
X456998D01*
X458997D01*
X460997Y368501D01*
Y366501D01*
X458997Y364502D01*
X454999D01*
X452999Y366501D01*
D13*
X5842Y356611D02*
X15999Y341376D01*
Y356611D02*
X5842Y341376D01*
X28695D02*
Y356611D01*
X21077Y348993D01*
X31234D01*
X79304Y490617D02*
X89461Y475382D01*
Y490617D02*
X79304Y475382D01*
X104696Y490617D02*
X94539D01*
Y483000D01*
X99618Y485539D01*
X102157D01*
X104696Y483000D01*
Y477922D01*
X102157Y475382D01*
X97078D01*
X94539Y477922D01*
M02*
