G04*
G04 #@! TF.GenerationSoftware,Altium Limited,Altium Designer,23.4.1 (23)*
G04*
G04 Layer_Color=8388736*
%FSLAX44Y44*%
%MOMM*%
G71*
G04*
G04 #@! TF.SameCoordinates,1CC85F37-83BB-4277-A685-93E53EEA7533*
G04*
G04*
G04 #@! TF.FilePolarity,Negative*
G04*
G01*
G75*
%ADD14R,1.2000X0.7000*%
G04:AMPARAMS|DCode=15|XSize=1.05mm|YSize=1.07mm|CornerRadius=0.145mm|HoleSize=0mm|Usage=FLASHONLY|Rotation=90.000|XOffset=0mm|YOffset=0mm|HoleType=Round|Shape=RoundedRectangle|*
%AMROUNDEDRECTD15*
21,1,1.0500,0.7800,0,0,90.0*
21,1,0.7600,1.0700,0,0,90.0*
1,1,0.2900,0.3900,0.3800*
1,1,0.2900,0.3900,-0.3800*
1,1,0.2900,-0.3900,-0.3800*
1,1,0.2900,-0.3900,0.3800*
%
%ADD15ROUNDEDRECTD15*%
G04:AMPARAMS|DCode=16|XSize=1.05mm|YSize=1.07mm|CornerRadius=0.145mm|HoleSize=0mm|Usage=FLASHONLY|Rotation=180.000|XOffset=0mm|YOffset=0mm|HoleType=Round|Shape=RoundedRectangle|*
%AMROUNDEDRECTD16*
21,1,1.0500,0.7800,0,0,180.0*
21,1,0.7600,1.0700,0,0,180.0*
1,1,0.2900,-0.3800,0.3900*
1,1,0.2900,0.3800,0.3900*
1,1,0.2900,0.3800,-0.3900*
1,1,0.2900,-0.3800,-0.3900*
%
%ADD16ROUNDEDRECTD16*%
%ADD17R,0.5000X1.0000*%
%ADD18R,7.4000X5.6500*%
%ADD19R,3.0500X1.0500*%
%ADD20R,0.8000X1.0000*%
%ADD21R,1.1500X1.5000*%
%ADD22R,2.3000X1.7000*%
%ADD23R,1.3500X0.7000*%
%ADD24R,0.7500X0.4000*%
%ADD25R,1.1000X0.7000*%
%ADD26R,2.2500X6.4000*%
%ADD27C,1.6240*%
%ADD28C,3.6000*%
G04:AMPARAMS|DCode=29|XSize=1.6mm|YSize=1.6mm|CornerRadius=0.425mm|HoleSize=0mm|Usage=FLASHONLY|Rotation=180.000|XOffset=0mm|YOffset=0mm|HoleType=Round|Shape=RoundedRectangle|*
%AMROUNDEDRECTD29*
21,1,1.6000,0.7500,0,0,180.0*
21,1,0.7500,1.6000,0,0,180.0*
1,1,0.8500,-0.3750,0.3750*
1,1,0.8500,0.3750,0.3750*
1,1,0.8500,0.3750,-0.3750*
1,1,0.8500,-0.3750,-0.3750*
%
%ADD29ROUNDEDRECTD29*%
%ADD30C,1.6000*%
G04:AMPARAMS|DCode=31|XSize=2.6mm|YSize=2.6mm|CornerRadius=0.675mm|HoleSize=0mm|Usage=FLASHONLY|Rotation=90.000|XOffset=0mm|YOffset=0mm|HoleType=Round|Shape=RoundedRectangle|*
%AMROUNDEDRECTD31*
21,1,2.6000,1.2500,0,0,90.0*
21,1,1.2500,2.6000,0,0,90.0*
1,1,1.3500,0.6250,0.6250*
1,1,1.3500,0.6250,-0.6250*
1,1,1.3500,-0.6250,-0.6250*
1,1,1.3500,-0.6250,0.6250*
%
%ADD31ROUNDEDRECTD31*%
%ADD32C,2.6000*%
D14*
X780000Y241500D02*
D03*
Y222500D02*
D03*
X806000Y232000D02*
D03*
D15*
X771000Y201000D02*
D03*
Y186800D02*
D03*
X824000Y201100D02*
D03*
Y186900D02*
D03*
X806000Y201100D02*
D03*
Y186900D02*
D03*
X788000Y201100D02*
D03*
Y186900D02*
D03*
X531000Y310100D02*
D03*
Y295900D02*
D03*
X335000Y300100D02*
D03*
Y285900D02*
D03*
X207000Y430000D02*
D03*
Y415800D02*
D03*
X280000Y440000D02*
D03*
Y454200D02*
D03*
X260000Y364000D02*
D03*
Y378200D02*
D03*
X178229Y378332D02*
D03*
Y364132D02*
D03*
X280000Y400900D02*
D03*
Y415100D02*
D03*
X260000Y400900D02*
D03*
Y415100D02*
D03*
X511500Y295900D02*
D03*
Y310100D02*
D03*
X492000Y295900D02*
D03*
Y310100D02*
D03*
D16*
X805900Y274000D02*
D03*
X820100D02*
D03*
X752900Y380000D02*
D03*
X767100D02*
D03*
X791900D02*
D03*
X806100D02*
D03*
X806100Y296000D02*
D03*
X820300D02*
D03*
X750900Y322000D02*
D03*
X765100D02*
D03*
X340000Y395500D02*
D03*
X325800D02*
D03*
X217100Y364000D02*
D03*
X202900D02*
D03*
Y384000D02*
D03*
X217100D02*
D03*
X458100Y353000D02*
D03*
X443900D02*
D03*
X453100Y300000D02*
D03*
X438900D02*
D03*
D17*
X805500Y321750D02*
D03*
X792500D02*
D03*
Y344250D02*
D03*
X799000D02*
D03*
X805500D02*
D03*
X775500Y296250D02*
D03*
X788500D02*
D03*
Y273750D02*
D03*
X782000D02*
D03*
X775500D02*
D03*
D18*
X653000Y345200D02*
D03*
D19*
X716000Y368000D02*
D03*
Y322400D02*
D03*
D20*
X214500Y285000D02*
D03*
X200500D02*
D03*
D21*
X350750Y351000D02*
D03*
X369250D02*
D03*
X388750D02*
D03*
X407250D02*
D03*
X455250Y280000D02*
D03*
X436750D02*
D03*
D22*
X740000Y182400D02*
D03*
Y222600D02*
D03*
X260000D02*
D03*
Y182400D02*
D03*
X500000Y183400D02*
D03*
Y223600D02*
D03*
D23*
X458500Y335500D02*
D03*
Y326000D02*
D03*
Y316500D02*
D03*
X433500D02*
D03*
Y326000D02*
D03*
Y335500D02*
D03*
D24*
X164150Y414000D02*
D03*
X177650D02*
D03*
X365750Y431000D02*
D03*
X352250D02*
D03*
D25*
X340000Y430500D02*
D03*
Y449500D02*
D03*
X316000Y440000D02*
D03*
D26*
X364250Y306000D02*
D03*
X405750D02*
D03*
D27*
X134000Y215000D02*
D03*
Y240000D02*
D03*
Y260000D02*
D03*
Y285000D02*
D03*
D28*
X106900Y315700D02*
D03*
Y184300D02*
D03*
D29*
X132150Y434000D02*
D03*
D30*
X152150D02*
D03*
X172150D02*
D03*
D31*
X389000Y40000D02*
D03*
X500000Y100001D02*
D03*
X627000Y40000D02*
D03*
X740000Y100001D02*
D03*
X260000Y100000D02*
D03*
D32*
X427100Y40000D02*
D03*
X550000Y100001D02*
D03*
X665100Y40000D02*
D03*
X790000Y100001D02*
D03*
X310000Y100000D02*
D03*
M02*
