G04*
G04 #@! TF.GenerationSoftware,Altium Limited,Altium Designer,23.4.1 (23)*
G04*
G04 Layer_Color=32896*
%FSLAX44Y44*%
%MOMM*%
G71*
G04*
G04 #@! TF.SameCoordinates,36EB4F1C-18F9-40B5-A6F6-03420B47F260*
G04*
G04*
G04 #@! TF.FilePolarity,Positive*
G04*
G01*
G75*
%ADD13C,0.2540*%
D13*
X467460Y11540D02*
Y26775D01*
X459842D01*
X457303Y24236D01*
Y19158D01*
X459842Y16618D01*
X467460D01*
X449686Y11540D02*
X444607D01*
X442068Y14079D01*
Y19158D01*
X444607Y21697D01*
X449686D01*
X452225Y19158D01*
Y14079D01*
X449686Y11540D01*
X436990Y21697D02*
Y14079D01*
X434451Y11540D01*
X431912Y14079D01*
X429372Y11540D01*
X426833Y14079D01*
Y21697D01*
X414137Y11540D02*
X419216D01*
X421755Y14079D01*
Y19158D01*
X419216Y21697D01*
X414137D01*
X411598Y19158D01*
Y16618D01*
X421755D01*
X406520Y21697D02*
Y11540D01*
Y16618D01*
X403980Y19158D01*
X401441Y21697D01*
X398902D01*
X391285Y26775D02*
Y11540D01*
X383667D01*
X381128Y14079D01*
Y16618D01*
X383667Y19158D01*
X391285D01*
X383667D01*
X381128Y21697D01*
Y24236D01*
X383667Y26775D01*
X391285D01*
X373510Y11540D02*
X368432D01*
X365893Y14079D01*
Y19158D01*
X368432Y21697D01*
X373510D01*
X376050Y19158D01*
Y14079D01*
X373510Y11540D01*
X358275Y21697D02*
X353197D01*
X350658Y19158D01*
Y11540D01*
X358275D01*
X360815Y14079D01*
X358275Y16618D01*
X350658D01*
X345579Y21697D02*
Y11540D01*
Y16618D01*
X343040Y19158D01*
X340501Y21697D01*
X337962D01*
X320188Y26775D02*
Y11540D01*
X327805D01*
X330344Y14079D01*
Y19158D01*
X327805Y21697D01*
X320188D01*
X299874Y11540D02*
X294796D01*
X297335D01*
Y26775D01*
X299874Y24236D01*
X287178Y11540D02*
Y14079D01*
X284639D01*
Y11540D01*
X287178D01*
X274482Y24236D02*
X271943Y26775D01*
X266865D01*
X264326Y24236D01*
Y14079D01*
X266865Y11540D01*
X271943D01*
X274482Y14079D01*
Y24236D01*
X259247Y11540D02*
Y14079D01*
X256708D01*
Y11540D01*
X259247D01*
X246551Y24236D02*
X244012Y26775D01*
X238934D01*
X236395Y24236D01*
Y14079D01*
X238934Y11540D01*
X244012D01*
X246551Y14079D01*
Y24236D01*
X203303Y11540D02*
X213460D01*
X203303Y21697D01*
Y24236D01*
X205842Y26775D01*
X210921D01*
X213460Y24236D01*
X198225D02*
X195686Y26775D01*
X190607D01*
X188068Y24236D01*
Y21697D01*
X190607Y19158D01*
X193147D01*
X190607D01*
X188068Y16618D01*
Y14079D01*
X190607Y11540D01*
X195686D01*
X198225Y14079D01*
X182990Y11540D02*
Y14079D01*
X180451D01*
Y11540D01*
X182990D01*
X170294Y24236D02*
X167755Y26775D01*
X162676D01*
X160137Y24236D01*
Y14079D01*
X162676Y11540D01*
X167755D01*
X170294Y14079D01*
Y24236D01*
X144902Y26775D02*
X155059D01*
Y19158D01*
X149980Y21697D01*
X147441D01*
X144902Y19158D01*
Y14079D01*
X147441Y11540D01*
X152520D01*
X155059Y14079D01*
X139824Y11540D02*
Y14079D01*
X137285D01*
Y11540D01*
X139824D01*
X116971D02*
X127128D01*
X116971Y21697D01*
Y24236D01*
X119510Y26775D01*
X124589D01*
X127128Y24236D01*
X111893D02*
X109354Y26775D01*
X104275D01*
X101736Y24236D01*
Y14079D01*
X104275Y11540D01*
X109354D01*
X111893Y14079D01*
Y24236D01*
X86501Y11540D02*
X96658D01*
X86501Y21697D01*
Y24236D01*
X89040Y26775D01*
X94119D01*
X96658Y24236D01*
X81423D02*
X78884Y26775D01*
X73805D01*
X71266Y24236D01*
Y21697D01*
X73805Y19158D01*
X76344D01*
X73805D01*
X71266Y16618D01*
Y14079D01*
X73805Y11540D01*
X78884D01*
X81423Y14079D01*
M02*
