M48
;Layer_Color=9474304
;FILE_FORMAT=4:4
METRIC,LZ
;TYPE=PLATED
T1F00S00C0.3000
T2F00S00C0.8000
T3F00S00C1.5000
T4F00S00C1.7000
T5F00S00C2.5000
%
T01
X00121Y00215
X00142Y00203
X001425Y002275
X00163Y00215
X0026Y00255
X00251Y00299
X00271
X00324Y003
X00325Y00284
X00345Y003
X00335Y00311
X00339Y00351
X00351Y00364
X00311Y00396
X00228Y00384
X0026Y00343
X00419Y00351
X00407Y00364
X004215Y00283906
X00455Y00266
X00465Y003
X00478Y00295
Y00326
X00531Y00284
X00544Y00296
X00665Y00266
Y00257
Y00248
X007663Y002415
X0078Y00233
X0078Y0025
X00789Y00259
X00781Y00334
X00738Y00368
X00716Y00356
Y0038
X007529Y003928
X00771Y00174
X00788Y001741
X00806Y001741
X00824Y001741
X008368Y001869
X008338Y00274
X00834Y00296
X0082Y00285
Y00307
X008125Y00333
X00822Y00361
X008Y0036
X008198Y00263
X00375Y00431
X003509Y004495
X003399Y004605
X0029Y004541
X0028Y004651
X00269Y004541
X00207Y004409
X00217Y004299
X00196
X00152Y00414
X00311Y00415
T02
X0013215Y00434
X0015215
X0017215
T03
X00389Y0004
X004271
X00627
X006651
T04
X0026Y001
X0031
X005Y00100001
X0055
X0074
X0079
T05
X00105Y001843
Y003157
M30
